<svg width="375" height="112" viewBox="0 0 375 112" fill="none" xmlns="http://www.w3.org/2000/svg">
<circle cx="56" cy="56" r="56" fill="white"/>
<path d="M25.6531 83.3001H42.8397C46.2583 83.3001 49.5369 84.6581 51.9543 87.0755C54.3716 89.4928 55.7297 92.7714 55.7297 96.19V53.2235C55.7297 41.0725 55.7297 34.9928 51.9529 31.2203C48.1804 27.4435 42.1007 27.4435 29.9497 27.4435H25.6531C21.6013 27.4435 19.5776 27.4435 18.3187 28.7025C17.0598 29.9614 17.0598 31.9851 17.0598 36.0369V74.7068C17.0598 78.7585 17.0598 80.7822 18.3187 82.0411C19.5776 83.3001 21.6013 83.3001 25.6531 83.3001Z" fill="#50AFDE" fill-opacity="0.8"/>
<path d="M85.8061 83.3H72.9162C69.4975 83.3 66.2189 84.6581 63.8016 87.0754C61.3842 89.4927 60.0262 92.7714 60.0262 96.19V53.2234C60.0262 41.0725 60.0262 34.9927 63.803 31.2202C67.5754 27.4435 73.6552 27.4435 85.8061 27.4435C89.8579 27.4435 91.8816 27.4435 93.1405 28.7024C94.3995 29.9613 94.3995 31.985 94.3995 36.0368V74.7067C94.3995 78.7584 94.3995 80.7822 93.1405 82.0411C91.8816 83.3 89.8579 83.3 85.8061 83.3ZM25.653 28.088C25.653 27.917 25.7209 27.7531 25.8417 27.6323C25.9626 27.5114 26.1265 27.4435 26.2975 27.4435H37.8984C38.0694 27.4435 38.2333 27.5114 38.3542 27.6323C38.475 27.7531 38.5429 27.917 38.5429 28.088V46.3316C38.5433 46.5443 38.4805 46.7524 38.3625 46.9294C38.2445 47.1064 38.0766 47.2443 37.8801 47.3258C37.6836 47.4073 37.4673 47.4285 37.2587 47.3869C37.0501 47.3453 36.8585 47.2427 36.7083 47.0921L32.8584 43.2423C32.7587 43.1423 32.6401 43.0629 32.5096 43.0087C32.3791 42.9546 32.2392 42.9267 32.0979 42.9267C31.9567 42.9267 31.8167 42.9546 31.6862 43.0087C31.5557 43.0629 31.4372 43.1423 31.3374 43.2423L27.4876 47.0921C27.3374 47.2427 27.1458 47.3453 26.9372 47.3869C26.7286 47.4285 26.5123 47.4073 26.3158 47.3258C26.1193 47.2443 25.9514 47.1064 25.8334 46.9294C25.7154 46.7524 25.6526 46.5443 25.653 46.3316V28.088Z" fill="#4178D4"/>
<path d="M174.5 50.25C174.5 52.1042 174.271 53.7604 173.812 55.2188C173.354 56.6771 172.729 57.9688 171.938 59.0938C171.167 60.1979 170.271 61.1458 169.25 61.9375C168.229 62.7292 167.156 63.3854 166.031 63.9062C164.927 64.4062 163.802 64.7708 162.656 65C161.531 65.2292 160.469 65.3438 159.469 65.3438L176.438 80H163.875L146.938 65.3438H141.094V57.2188H159.469C160.49 57.1354 161.417 56.9271 162.25 56.5938C163.104 56.2396 163.833 55.7708 164.438 55.1875C165.062 54.6042 165.542 53.9062 165.875 53.0938C166.208 52.2604 166.375 51.3125 166.375 50.25V45.125C166.375 44.6667 166.312 44.3229 166.188 44.0938C166.083 43.8438 165.938 43.6667 165.75 43.5625C165.583 43.4375 165.396 43.3646 165.188 43.3438C165 43.3229 164.823 43.3125 164.656 43.3125H137.844V80H129.719V39.2812C129.719 38.7188 129.823 38.1875 130.031 37.6875C130.24 37.1875 130.521 36.75 130.875 36.375C131.25 36 131.688 35.7083 132.188 35.5C132.688 35.2917 133.229 35.1875 133.812 35.1875H164.656C166.469 35.1875 168 35.5208 169.25 36.1875C170.5 36.8333 171.51 37.6562 172.281 38.6562C173.073 39.6354 173.635 40.6979 173.969 41.8438C174.323 42.9896 174.5 44.0625 174.5 45.0625V50.25ZM194.044 80H185.919V35.1875H194.044V80ZM249.806 66.8125C249.806 68.4167 249.598 69.8646 249.181 71.1562C248.785 72.4271 248.254 73.5521 247.588 74.5312C246.921 75.5104 246.14 76.3438 245.244 77.0312C244.348 77.7188 243.421 78.2812 242.463 78.7188C241.504 79.1562 240.525 79.4792 239.525 79.6875C238.546 79.8958 237.619 80 236.744 80H205.4V71.875H236.744C238.306 71.875 239.515 71.4167 240.369 70.5C241.244 69.5833 241.681 68.3542 241.681 66.8125C241.681 66.0625 241.567 65.375 241.338 64.75C241.108 64.125 240.775 63.5833 240.338 63.125C239.921 62.6667 239.4 62.3125 238.775 62.0625C238.171 61.8125 237.494 61.6875 236.744 61.6875H218.056C216.744 61.6875 215.327 61.4583 213.806 61C212.285 60.5208 210.869 59.7604 209.556 58.7188C208.265 57.6771 207.181 56.3125 206.306 54.625C205.452 52.9375 205.025 50.875 205.025 48.4375C205.025 46 205.452 43.9479 206.306 42.2812C207.181 40.5938 208.265 39.2292 209.556 38.1875C210.869 37.125 212.285 36.3646 213.806 35.9062C215.327 35.4271 216.744 35.1875 218.056 35.1875H245.713V43.3125H218.056C216.515 43.3125 215.306 43.7812 214.431 44.7188C213.577 45.6562 213.15 46.8958 213.15 48.4375C213.15 50 213.577 51.2396 214.431 52.1562C215.306 53.0521 216.515 53.5 218.056 53.5H236.744H236.806C237.681 53.5208 238.608 53.6458 239.588 53.875C240.567 54.0833 241.535 54.4167 242.494 54.875C243.473 55.3333 244.4 55.9167 245.275 56.625C246.15 57.3125 246.921 58.1458 247.588 59.125C248.275 60.1042 248.817 61.2292 249.213 62.5C249.608 63.7708 249.806 65.2083 249.806 66.8125ZM296.6 61.6875H270.944V53.5H296.6V61.6875ZM300.256 80H270.944C269.819 80 268.59 79.8021 267.256 79.4062C265.923 79.0104 264.683 78.3646 263.538 77.4688C262.413 76.5521 261.465 75.375 260.694 73.9375C259.944 72.4792 259.569 70.6979 259.569 68.5938V39.2812C259.569 38.7188 259.673 38.1875 259.881 37.6875C260.09 37.1875 260.371 36.75 260.725 36.375C261.1 36 261.538 35.7083 262.038 35.5C262.538 35.2917 263.079 35.1875 263.663 35.1875H300.256V43.3125H267.694V68.5938C267.694 69.6562 267.975 70.4688 268.538 71.0312C269.1 71.5938 269.923 71.875 271.006 71.875H300.256V80Z" fill="#44B4F1"/>
</svg>
